<svg width="32" height="32" viewBox="0 0 32 32" fill="none" xmlns="http://www.w3.org/2000/svg">
<g id="Back">
<rect id="Base" width="32" height="32" rx="12" fill="#F3F9FF"/>
<path id="Shape Copy" d="M13.3619 19.1898C13.7524 19.5803 14.3856 19.5803 14.7761 19.1898C15.1666 18.7992 15.1666 18.1661 14.7761 17.7756L13.3619 19.1898ZM12.2933 15.2928C11.9028 14.9023 11.2697 14.9023 10.8791 15.2928C10.4886 15.6833 10.4886 16.3165 10.8791 16.707L12.2933 15.2928ZM10.8791 15.2928C10.4886 15.6833 10.4886 16.3165 10.8791 16.707C11.2697 17.0975 11.9028 17.0975 12.2933 16.707L10.8791 15.2928ZM14.7761 14.2243C15.1666 13.8337 15.1666 13.2006 14.7761 12.81C14.3856 12.4195 13.7524 12.4195 13.3619 12.81L14.7761 14.2243ZM11.5862 14.9999C11.0339 14.9999 10.5862 15.4476 10.5862 15.9999C10.5862 16.5522 11.0339 16.9999 11.5862 16.9999V14.9999ZM20.4138 16.9999C20.9661 16.9999 21.4138 16.5522 21.4138 15.9999C21.4138 15.4476 20.9661 14.9999 20.4138 14.9999V16.9999ZM14.7761 17.7756L12.2933 15.2928L10.8791 16.707L13.3619 19.1898L14.7761 17.7756ZM12.2933 16.707L14.7761 14.2243L13.3619 12.81L10.8791 15.2928L12.2933 16.707ZM11.5862 16.9999H20.4138V14.9999H11.5862V16.9999Z" fill="#0E0E28"/>
</g>
</svg>
