<svg width="35" height="32" viewBox="0 0 35 32" fill="none" xmlns="http://www.w3.org/2000/svg">
<path id="Vector" d="M6.398 31.4632C6.14674 31.6817 5.83836 31.824 5.50906 31.8734C5.17977 31.9227 4.84323 31.8771 4.53895 31.7419C4.23468 31.6066 3.9753 31.3874 3.79127 31.1099C3.60724 30.8324 3.5062 30.5082 3.5 30.1753V26.25C2.57174 26.25 1.6815 25.8813 1.02513 25.2249C0.368749 24.5685 0 23.6783 0 22.75V10.5C0 9.57174 0.368749 8.6815 1.02513 8.02513C1.6815 7.36875 2.57174 7 3.5 7H22.75C23.6783 7 24.5685 7.36875 25.2249 8.02513C25.8813 8.6815 26.25 9.57174 26.25 10.5V22.75C26.25 23.6783 25.8813 24.5685 25.2249 25.2249C24.5685 25.8813 23.6783 26.25 22.75 26.25H14.0053L6.398 31.4632ZM28 17.5298C27.9944 17.745 27.9944 17.9603 28 18.1755V17.5298ZM28 17.5298C28.0088 17.3425 28.0105 14.9975 28.007 10.4965C28.0056 9.10502 27.4519 7.77101 26.4675 6.78758C25.483 5.80415 24.1485 5.25175 22.757 5.25175H8.75V3.5C8.75 2.57174 9.11875 1.6815 9.77513 1.02513C10.4315 0.368749 11.3217 0 12.25 0L31.5 0C32.4283 0 33.3185 0.368749 33.9749 1.02513C34.6312 1.6815 35 2.57174 35 3.5V15.75C35 16.6783 34.6312 17.5685 33.9749 18.2249C33.3185 18.8813 32.4283 19.25 31.5 19.25V23.1753C31.4938 23.5082 31.3928 23.8324 31.2087 24.1099C31.0247 24.3874 30.7653 24.6066 30.461 24.7419C30.1568 24.8771 29.8202 24.9227 29.4909 24.8734C29.1616 24.824 28.8533 24.6817 28.602 24.4632L28 24.0503V17.5298Z" fill="#00A9FF"/>
</svg>
